<svg id="visual" viewBox="0 0 900 600" width="900" height="600" xmlns="http://www.w3.org/2000/svg" xmlns:xlink="http://www.w3.org/1999/xlink" version="1.1"><rect x="0" y="0" width="900" height="600" fill="#002233"></rect><path d="M0 487L21.5 491.3C43 495.7 86 504.3 128.8 500C171.7 495.7 214.3 478.3 257.2 472.8C300 467.3 343 473.7 385.8 473.3C428.7 473 471.3 466 514.2 461C557 456 600 453 642.8 451.2C685.7 449.3 728.3 448.7 771.2 460.2C814 471.7 857 495.3 878.5 507.2L900 519L900 601L878.5 601C857 601 814 601 771.2 601C728.3 601 685.7 601 642.8 601C600 601 557 601 514.2 601C471.3 601 428.7 601 385.8 601C343 601 300 601 257.2 601C214.3 601 171.7 601 128.8 601C86 601 43 601 21.5 601L0 601Z" fill="#0066FF" stroke-linecap="round" stroke-linejoin="miter"></path></svg>